<?xml version="1.0" encoding="UTF-8"?>
<svg width="24px" height="24px" viewBox="0 0 24 24" version="1.1" xmlns="http://www.w3.org/2000/svg">
    <g stroke="none" stroke-width="1" fill="none" fill-rule="evenodd">
        <g fill="#f2a6c7">
            <path d="M12,2 C14.7614,2 17,4.23858 17,7 C17,8.02609 16.6946,8.98895 16.1627,9.79943 C18.3776,10.4372 20,12.5051 20,15 C20,18.3137 17.3137,21 14,21 C12.9739,21 12.011,20.6946 11.2006,20.1627 C10.5628,22.3776 8.49485,24 6,24 C2.68629,24 0,21.3137 0,18 C0,16.9739 0.305383,16.011 0.837286,15.2006 C-1.37759,14.5628 -3,12.4949 -3,10 C-3,6.68629 -0.313705,4 3,4 C4.02609,4 4.98895,4.30538 5.79943,4.83729 C6.43719,2.62241 8.50515,1 11,1 C11.3396,1 11.6747,1.02124 12,1.06204 L12,2 Z M12,1.06204 C11.6747,1.02124 11.3396,1 11,1 C8.50515,1 6.43719,2.62241 5.79943,4.83729 C4.98895,4.30538 4.02609,4 3,4 C-0.313705,4 -3,6.68629 -3,10 C-3,12.4949 -1.37759,14.5628 0.837286,15.2006 C0.305383,16.011 0,16.9739 0,18 C0,21.3137 2.68629,24 6,24 C8.49485,24 10.5628,22.3776 11.2006,20.1627 C12.011,20.6946 12.9739,21 14,21 C17.3137,21 20,18.3137 20,15 C20,12.5051 18.3776,10.4372 16.1627,9.79943 C16.6946,8.98895 17,8.02609 17,7 C17,4.23858 14.7614,2 12,2 L12,1.06204 Z" transform="translate(8.500000, 12.500000) rotate(-45.000000) translate(-8.500000, -12.500000)"></path>
        </g>
    </g>
</svg> 